<?xml version="1.0" standalone="no"?>
<svg version="1.1" id="downloadSvg" xmlns="http://www.w3.org/2000/svg" xmlns:xlink="http://www.w3.org/1999/xlink" x="0px" y="0px" viewBox="0 0 1200 1200" enable-background="new 0 0 1200 1200" xml:space="preserve" height="512" width="512">
<path fill="#230C04" d="M1138.116,757.512c-2.401-0.376-4.868-0.326-7.306-0.456c-36.608-1.941-73.193-4.335-109.89-1.474&#10;&#9;c-9.472,0.738-19.201,1.841-30.894-1.344c2.24-4.844,3.008-7.169,4.286-9.167c15.357-23.991,31.06-47.766,46.126-71.937&#10;&#9;c14.703-23.589,25.479-49.061,35.135-75.103c15.913-42.915,12.669-84.968-5.822-125.899c-7.666-16.969-17.763-32.947-27.779-48.726&#10;&#9;c-20.258-31.916-49.842-50.7-86.451-58.921c-53.246-11.957-106.505,11.842-132.112,60.196&#10;&#9;c-11.872,22.416-18.443,46.913-22.766,71.913c-1.432,8.286-0.766,16.227,5.436,23.537c18.065,1.806,36.553,4.308,55.123,5.327&#10;&#9;c18.782,1.031,37.971-14.555,41.638-33.439c2.981-15.348,11.66-26.706,23.164-36.149c11.802-9.686,18.074-9.443,30.643-0.692&#10;&#9;c18.349,12.777,24.718,31.731,26.58,52.665c1.613,18.125-2.331,35.549-7.798,52.799c-14.121,44.56-40.114,81.567-72.163,114.786&#10;&#9;c-35.109,36.391-71.999,70.775-112.376,101.39c-8.929,6.769-16.273,15.789-23.703,24.332c-10.539,12.117-8.607,25.498-2.593,38.967&#10;&#9;c2.891,6.473,7.704,10.811,14.777,11.18c11.344,0.592,22.743,0.856,34.092,0.467c13.014-0.446,25.986-2.298,38.998-2.6&#10;&#9;c77.365-1.794,154.732-3.619,232.109-4.644c13.373-0.177,25.666-3.489,38.035-7.106c4.236-1.238,9.044-4.761,11.073-8.578&#10;&#9;c9.655-18.164,14.598-37.901,16.273-58.337C1150.539,763.333,1145.688,758.697,1138.116,757.512z M1027.268,773.169&#10;&#9;c-6.681,8.55-14.062,7.435-23.462,5.508C1011.332,771.62,1017.833,768.518,1027.268,773.169z M985.844,710.886&#10;&#9;c2.122-4.104,3.055-6.933,4.844-9.032c1.335-1.567,3.776-2.193,7.541-4.212C998.373,708.31,995.144,711.59,985.844,710.886z&#10;&#9; M1059.619,560.906c4.35,9.331,1.911,15.95-1.926,21.921c-0.988,1.539-4.865,1.223-8.083,1.9&#10;&#9;C1052.057,570.863,1052.2,570.911,1059.619,560.906z M1047.219,598.184c1.009-0.184,3.308,1.494,3.435,2.508&#10;&#9;c0.864,6.916-1.538,12.001-10.158,14.617c-0.855-3.013-1.374-3.813-1.216-4.443C1040.554,605.769,1040.161,599.475,1047.219,598.184&#10;&#9;z M890.569,495.59c-0.275,1.089-2.569,2.183-4.026,2.339c-2.136,0.228-5.29,0.365-6.286-0.86c-0.973-1.197-0.55-4.81,0.632-6.187&#10;&#9;c1.954-2.278,5.009-3.614,9.668-6.729c-6.677-3.025-10.931-6.033-8.762-11.826c2.925-7.81,9.512-6.94,17.351-5.133&#10;&#9;C900.097,477.734,892.972,486.079,890.569,495.59z M911.296,451.653c-5.448,3.023-5.599,2.74-20.303-2.028&#10;&#9;c7.409-7.391,15.531-6.662,26.659-5.318C914.638,447.891,913.372,450.501,911.296,451.653z M1093.387,817.154&#10;&#9;c-23.23,4.861-284.886,15.168-312.226,12.409c-5.196-9.206,0.024-14.734,6.529-20.633c24.729-22.431,49.199-45.149,73.62-67.917&#10;&#9;c5.333-4.972,10.297-10.392,15.006-15.965c5.319-6.295,11.63-10.466,20.353-11.932c0.237,3.457,0.445,6.495,0.78,11.397&#10;&#9;c16.528-13.769,28.849-29.845,41.687-45.41c28.611-34.691,54.136-71.408,72.988-112.419c1.929-4.198,2.654-8.95,4.024-13.749&#10;&#9;c-10.121-3.621-10.609,7.42-16.756,8.177c-1.337,5.441-1.752,11.341-4.19,16.233c-6.128,12.29-13.17,24.125-22.383,35.006&#10;&#9;c3.867-9.08,7.799-18.132,11.583-27.247c3.74-9.011,7.33-18.084,10.985-27.13c1.706-12.878,4.015-25.709,4.989-38.641&#10;&#9;c1.3-17.254-1.089-34.21-8.618-49.973c-10.883-22.783-28.487-37.52-53.894-40.85c-11.998-1.573-24.467-2.266-36.428-0.855&#10;&#9;c-27.401,3.231-43.435,22.261-43.338,49.895c0.031,8.814,1.345,17.624,2.197,27.958c-10.458-2.092-10.635-12.096-15.793-17.073&#10;&#9;c-4.062-3.92-2.881-13.268-4.039-20.271c-5.021-1.131-5.147,2.721-5.363,5.738c-0.741,10.362-1.187,20.745-1.692,30.128&#10;&#9;c-7.6,3.563-12.05,1.834-12.093-4.424c-0.073-10.495-0.535-21.503,2.323-31.382c4.256-14.712,10.071-29.272,17.351-42.747&#10;&#9;c13.148-24.334,35.514-37.919,61.486-44.476c9.723-2.454,21.382-1.439,31.18,1.386c31.031,8.948,58.528,24.573,79.421,49.832&#10;&#9;c20.533,24.822,30.416,52.926,27.102,85.834c-5.497,54.579-24.462,104.164-52.706,150.618c-1.933,3.179-4.869,5.749-7.425,8.549&#10;&#9;c-0.183,0.092-0.374,0.172-0.558,0.263c0.031,0.076,0.062,0.153,0.093,0.229c0.002-0.001,0.041-0.04,0.051-0.049&#10;&#9;c-0.01,0.012-0.022,0.023-0.032,0.034l0.527-0.515c-6.147,16.363-17.416,29.296-28.822,41.978&#10;&#9;c-16.883,18.772-34.292,37.071-51.447,55.6c-3.32,3.586-6.952,7.009-9.576,11.065c-1.516,2.344-2.595,6.445-1.528,8.59&#10;&#9;c1.163,2.339,4.957,4.506,7.741,4.692c8.919,0.596,17.909,0.482,26.859,0.213c49.674-1.492,99.342-3.169,149.018-4.613&#10;&#9;c6.323-0.184,12.675,0.628,18.265,0.937C1095.946,803.476,1095.901,810.284,1093.387,817.154z M982.159,728.819&#10;&#9;c-0.784,7.504-4.932,10.83-12.338,9.977c-1.231-0.142-2.863-1.535-3.279-2.713c-0.416-1.177,0.038-3.136,0.846-4.188&#10;&#9;C971.201,726.929,975.983,725.438,982.159,728.819z M965.175,751.98c-5.17,13.329-13.518,15.094-22.597,15.289&#10;&#9;c-1.27,0.027-3.245-1.026-3.668-2.074c-0.448-1.109,0.101-3.358,1.031-4.149c2.943-2.501,5.991-5.336,9.515-6.578&#10;&#9;C953.735,752.96,958.539,752.941,965.175,751.98z M1080.401,774.789c6.428-7.444,11.499-7.628,18.337-3.583&#10;&#9;C1090.435,775.217,1090.435,775.217,1080.401,774.789z M1124.604,798.973c-5.419,2.424-6.918,0.335-7.198-3.464&#10;&#9;c-0.422-5.738-0.527-11.318,10.787-12.629C1126.678,789.678,1125.552,794.727,1124.604,798.973z M520.141,663.136&#10;&#9;c16.841-1.709,31.277-5.667,45.597-11.937C539.246,650.875,531.908,652.851,520.141,663.136z M340.496,351.662&#10;&#9;c0.048-3.253,0.653-6.51,0.55-9.75c-0.36-11.324-7.729-16.541-17.805-12.186c-12.774,5.521-24.824,12.263-33.679,23.521&#10;&#9;c-12.073,15.348-24.338,30.547-36.307,45.975c-37.936,48.901-74.644,98.725-115.125,145.674&#10;&#9;c-26.567,30.813-50.743,63.687-75.92,95.693c-3.015,3.833-5.695,7.944-8.352,12.042c-5.583,8.609-5.173,17.305,1.656,24.704&#10;&#9;c6.598,7.147,14.316,13.249,21.376,19.984c6.647,6.341,14.339,7.152,22.71,4.801c12.536-3.521,24.996-7.323,37.577-10.673&#10;&#9;c15.631-4.161,27.827-12.79,37.101-26.094c15.362-22.039,31.082-43.83,46.717-65.678c5.984-8.361,10.446-18.093,23.422-26.256&#10;&#9;c0,11.877,0.269,19.962-0.043,28.026c-2.392,61.856-6.478,123.598-11.875,185.271c-1.486,16.98-0.903,34.179-0.553,51.262&#10;&#9;c0.148,7.241,1.62,14.579,3.43,21.632c2.258,8.794,6.884,12.189,15.837,12.192c8.136,0.003,16.269-0.773,24.409-1.06&#10;&#9;c25.414-0.896,25.427-0.856,43.291-17.216c3.603-3.3,6.989-6.84,10.629-10.098c9.035-8.085,12.193-17.459,12.026-30.141&#10;&#9;c-1.253-95.282-2.957-190.576,1.155-285.854c0.982-22.754,1.563-45.761-0.634-68.364&#10;&#9;C338.607,423.22,339.966,387.474,340.496,351.662z M140.56,673.512c-3.288,1.533-6.828,2.527-15.482,5.593&#10;&#9;c11.31-14.235,11.31-14.235,19.966-9.677C143.379,670.994,142.2,672.747,140.56,673.512z M161.561,661.538&#10;&#9;c-6.688,2.913-10.064-2.131-13.536-8.69c2.476-6.835,5.733-13.445,15.247-14.896c0.351-0.054,0.676-0.275,0.986-0.601&#10;&#9;c0.929,2.665,2.553,5.143,3.316,7.858C169.528,652.163,167.422,658.986,161.561,661.538z M178.088,640.626&#10;&#9;c-2.442-0.701-4.103-0.728-5.102-1.555c-2.178-1.805-4.093-3.926-6.082-5.958c1.882-3.838,3.773-7.695,7.401-15.095&#10;&#9;c4.656,5.662,7.556,9.19,10.888,13.242C182.34,635.021,180.094,637.982,178.088,640.626z M196.852,615.654&#10;&#9;c-1.262,2.644-3.674,4.739-6.296,7.974c-2.923-2.831-5.435-4.606-7.058-6.987c-2.562-3.757-1.459-7.466,1.594-10.595&#10;&#9;c2.565-2.628,5.417-2.791,8.312-0.561C196.794,608.096,198.829,611.512,196.852,615.654z M204.451,600.963&#10;&#9;c-1.584-1.193-2.335-1.547-2.784-2.133c-2.945-3.84-5.749-7.963-0.781-12.015c1.207-0.984,4.68-0.871,5.928,0.165&#10;&#9;C212.49,591.686,211.163,596.217,204.451,600.963z M214.938,578.145c-1.528-1.183-2.914-3.744-2.756-5.549&#10;&#9;c0.14-1.596,2.501-2.998,4.505-5.156c1.736,2.511,3.542,4.067,3.927,5.918C221.264,576.487,217.134,579.845,214.938,578.145z&#10;&#9; M291.597,827.267c0.028,7.177-0.772,14.357-1.257,22.724c-20.677-16.697-21.196-39.031-21.864-64.394&#10;&#9;c-11.367,22.93-2.486,45.03-10.855,69.668c-1.267-8.516-2.452-12.251-2.273-15.919c2.143-43.92,3.642-87.893,6.974-131.726&#10;&#9;c5.312-69.883,9.858-139.75,7.869-209.882c-0.16-5.652-0.391-11.46-1.8-16.882c-2.17-8.348-12.293-12.091-19.741-7.71&#10;&#9;c-2.756,1.62-5.505,3.669-7.454,6.153c-4.01,5.107-7.908,10.395-11.102,16.033c-24.56,43.36-53.583,83.62-84.197,122.844&#10;&#9;c-12.516,16.036-23.898,32.956-35.802,49.468c-4.258,5.906-8.534,11.799-13.62,18.829c-4.263-3.474-7.737-6.305-12.012-9.789&#10;&#9;c8.385-10.966,16.04-20.978,26.795-35.044c-16.993,8.067-24.072,22.422-42.457,27.629c3.283-7.468,3.905-10.577,5.696-12.704&#10;&#9;c36.75-43.643,70.713-89.413,105.078-134.931c32.86-43.525,68.645-84.843,103.246-127.048c1.386-1.69,3.814-2.527,7.246-4.708&#10;&#9;c1.038,4.779,2.569,8.514,2.552,12.242c-0.269,59.452-0.705,118.904-1.175,178.355c-0.174,21.986-0.821,43.971-0.755,65.955&#10;&#9;C290.87,706.709,291.361,766.987,291.597,827.267z M327.224,348.04c-1.864,12.513-8.55,14.555-15.491,17.015&#10;&#9;C314.964,356.757,314.964,356.757,327.224,348.04z M310.938,487.188c2.918-2.079,6.556-3.149,9.93-4.708&#10;&#9;c6.413,11.417-6.804,12.864-8.012,19.735C303.806,494.937,303.425,492.541,310.938,487.188z M306.225,476.452&#10;&#9;c-0.279-12.996,8.343-13.669,14.996-16.965C322.833,470.905,322.833,470.905,306.225,476.452z M314.26,576.535&#10;&#9;c-2.02,0.23-5.848-0.91-6.04-1.942c-0.513-2.744-0.084-6.048,1.105-8.601c0.896-1.922,3.392-3.32,5.46-4.412&#10;&#9;c2.027-1.07,4.415-1.458,6.672-2.153C324.539,573.269,323.687,575.46,314.26,576.535z M309.225,601.509&#10;&#9;c-0.233-12.355-0.233-12.355,11.94-17.653C324.723,595.676,324.723,595.676,309.225,601.509z M307.442,674.971&#10;&#9;c1.666-10.443,7.568-11.755,15.691-13.617C322.114,672.241,315.832,673.069,307.442,674.971z M322.576,682.04&#10;&#9;c-0.515,13.532-0.515,13.532-13.516,18.219C307.354,690.458,307.354,690.458,322.576,682.04z M322.522,648.57&#10;&#9;c-0.963,2.256-4.659,3.834-7.449,4.641c-1.677,0.485-4.988-0.547-5.684-1.879c-0.821-1.571-0.383-4.995,0.872-6.219&#10;&#9;c3.157-3.08,7.082-5.375,12.579-9.341C322.839,641.595,323.806,645.563,322.522,648.57z M321.25,532.63&#10;&#9;c2.599,15.481,2.599,15.481-12.419,20.997C304.938,539.915,304.938,539.915,321.25,532.63z M313.982,523.552&#10;&#9;c-1.94,0.664-5.066,0.759-6.361-0.367c-1.416-1.231-2.384-4.584-1.716-6.299c1.87-4.8,4.583-9.272,7.012-13.854&#10;&#9;c3.488,2.398,9.691,0.958,9.985,8C323.187,517.866,319.758,521.573,313.982,523.552z M321.557,833.806&#10;&#9;c-3.589,3.886-7.876,7.13-15.588,13.932c0.411-14.343,8.257-16.185,12.256-20.767C323.378,828.265,324.123,831.028,321.557,833.806z&#10;&#9; M306.043,816.093c1.972-9.287,6.876-13.391,17.178-17.198C321.261,810.991,316.017,814.791,306.043,816.093z M308.204,793.115&#10;&#9;c-8.395-10.363,3.518-17.252,4.463-26.015c5.437,0.693,11.014,0.798,10.691,9.115C322.9,788.039,322.946,788.324,308.204,793.115z&#10;&#9; M323.428,748.432c-0.642,4.21-2.706,8.359-4.859,12.128c-1.361,2.381-3.808,4.141-5.872,6.12c-2.277-2.881-5.796-5.509-6.453-8.722&#10;&#9;c-0.697-3.409,0.505-7.91,2.418-10.972c2.286-3.658,5.964-6.447,9.153-9.541C323.713,739.012,324.1,744.029,323.428,748.432z&#10;&#9; M318.132,736.881c-3.645-1.345-9.272-1.924-10.197-4.318c-1.508-3.904-0.502-9.286,0.849-13.603&#10;&#9;c0.862-2.757,4.03-5.038,6.605-6.931c1.771-1.301,4.299-1.572,6.445-2.289C326.396,719.956,323.501,728.615,318.132,736.881z&#10;&#9; M310.493,629.985c-2.943-14.86-2.943-14.86,11.219-22.352C326.1,625.45,326.1,625.45,310.493,629.985z M323.768,447.004&#10;&#9;c-1.199,2.426-4.51,4.675-7.235,5.238c-2.715,0.562-7.205-0.17-8.486-2.018c-1.268-1.83-0.539-6.726,1.165-8.561&#10;&#9;c3.082-3.319,7.539-5.363,10.891-7.587C327.177,437.727,325.85,442.793,323.768,447.004z M326.173,421.202&#10;&#9;c-3.985,6.592-10.285,8.786-17.886,6.022c-0.154-11.383,8.819-12.366,16.666-19.363C325.7,414.566,327.579,418.876,326.173,421.202z&#10;&#9; M310.876,407.656c-4.217-3.518-2.981-6.334-0.45-8.552c4.024-3.526,8.376-6.677,16.835-13.321&#10;&#9;C326.33,402.272,317.421,403.843,310.876,407.656z M723.349,565.734c-5.642-0.687-11.384-0.504-17.068-0.896&#10;&#9;c-11.262-0.778-22.851,0.824-33.608-4.211c-4.638-8.425-3.977-17.658-4.014-26.415c-0.105-25.242,0.694-50.488,1.145-75.733&#10;&#9;c0.116-6.508,0.567-13.028,0.303-19.52c-0.252-6.189-3.44-11.342-9.385-13.063c-16.338-4.727-32.682-10.821-49.917-2.907&#10;&#9;c-5.147,2.364-10.851,3.483-16.208,5.426c-25.713,9.329-31.907,18.571-30.363,45.488c1.354,23.589,3.101,47.157,4.184,70.758&#10;&#9;c0.401,8.734,1.966,17.798-2.679,27.844c-16.013,3.909-32.377,8.801-49.09,11.655c-10.394,1.775-18.265,5.73-24.664,13.884&#10;&#9;c-23.299,29.693-26.357,31.506-17.946,68.679c0.539,2.382,1.02,4.79,1.323,7.212c2.566,20.473,12.956,24.581,30.463,22.119&#10;&#9;c9.667-1.36,19.173-3.825,28.788-5.59c5.518-1.013,11.11-1.622,17.872-2.585c0.554,5.643,1.401,10.326,1.411,15.01&#10;&#9;c0.059,28.508-0.2,57.017-0.046,85.524c0.034,6.464,0.592,13.095,2.159,19.335c1.662,6.619,6.125,12.344,13.463,12.38&#10;&#9;c13.752,0.068,28.266,1.539,41.098-2.224c22.388-6.566,37.499-23.108,41.54-46.359c4.029-23.184,5.187-46.867,7.603-70.331&#10;&#9;c0.815-7.918-1.76-16.283,3.394-24.449c2.609-0.751,5.651-2.284,8.75-2.411c19.999-0.817,34.99-9.909,48.284-24.786&#10;&#9;c9.059-10.137,12.372-19.856,10.817-33.077c-1.492-12.693-4.659-25.615,0.945-38.558&#10;&#9;C734.292,572.412,729.462,566.479,723.349,565.734z M645.528,459.212c2.678-1.517,5.689-2.446,10.057-4.27&#10;&#9;c0,4.995,1.521,10.062-0.333,12.194c-3.316,3.812-8.61,5.962-13.259,8.469c-0.463,0.25-2.785-1.617-3.216-2.858&#10;&#9;C636.462,466.09,640.335,462.155,645.528,459.212z M637.608,528.772c3.465-5.213,7.117-10.302,10.674-15.43&#10;&#9;c-12.803-9.124-13.649-13.482-4.742-22.64c2.677-2.753,6.276-4.611,9.365-6.816c7.819,9.046-2.656,15.966-1.08,22.622&#10;&#9;c1.608,6.793,5.788,13.101,3.832,20.431c-0.77,2.884-3.068,5.453-4.994,7.912c-2.768,3.531-5.81,6.848-8.745,10.248&#10;&#9;c-0.028-0.021-0.044-0.043-0.072-0.064C635.989,540.755,633.008,535.692,637.608,528.772z M641.933,552.843&#10;&#9;c1.319-1.243,2.15-2.622,2.173-4.022c2.662-0.073,5.326-0.415,7.984-0.682c2.947,23.951,2.947,23.951-18.588,36.03&#10;&#9;C632.675,572.291,632.714,561.527,641.933,552.843z M554.886,596.86c3.836-2.146,8.175-3.733,12.494-4.385&#10;&#9;c0.848-0.128,2.829,4.789,3.983,8.888c0.188,0.668-4.39,3.772-6.915,3.913c-3.548,0.198-7.266-1.153-10.695-2.422&#10;&#9;C553.37,602.713,553.682,597.534,554.886,596.86z M640.346,710.889c-1.365,2.817-3.842,5.096-5.637,7.371&#10;&#9;c1.672,5.266,3.661,10.295,4.632,15.515c0.225,1.207-2.889,4.06-4.724,4.318c-1.602,0.225-5.145-2.173-5.121-3.355&#10;&#9;c0.198-9.576,0.827-19.163,1.939-28.675c0.14-1.206,4.082-3.131,5.826-2.747C641.053,704.152,641.876,707.731,640.346,710.889z&#10;&#9; M685.628,645.982c-0.309,1.538-1.13,2.974-2.004,5.141c-9.759,3.521-20.469,2.145-30.885,3.102&#10;&#9;c-4.046,0.372-8.158,0.013-12.207,0.361c-18.777,1.614-23.912,7.298-24.588,26.111c-1.052,29.274-2.208,58.546-3.569,87.807&#10;&#9;c-0.49,10.523-0.755,21.21-6.295,30.866c-8.329,5.749-16.73,4.002-24.509,1.593c-1.367-2.699-2.72-4.111-2.688-5.491&#10;&#9;c0.677-30.065,1.619-60.124,2.252-90.19c0.239-11.369,0.059-22.76-0.382-34.123c-0.198-5.117-5.322-9.223-10.192-8.218&#10;&#9;c-9.56,1.972-18.969,4.671-28.497,6.818c-11.111,2.504-22.256,4.878-33.444,7.003c-3.103,0.589-6.413,0.089-10.573,0.089&#10;&#9;c-5.898-11.89-8.291-24.172-7.399-38.188c16.555-6.499,33.225-8.613,50.095-9.955c9.707-0.772,19.425-1.613,29.068-2.935&#10;&#9;c8.047-1.103,13.596-5.986,14.967-14.009c1.772-10.376,3.563-20.902,3.67-31.381c0.314-30.932-0.26-61.872-0.333-92.809&#10;&#9;c-0.015-6.336,0.638-12.673,0.971-18.798c15.902-1.584,15.902-1.584,30.523,3.502c0.53,3.993,1.788,8.693,1.672,13.358&#10;&#9;c-0.787,31.728-1.823,63.45-2.885,95.17c-0.191,5.687-1.216,11.356-1.246,17.037c-0.048,8.934,3.374,13.719,12.28,15.539&#10;&#9;c11.146,2.278,22.457,4.101,33.787,5.04c13.553,1.122,20.073,1.926,22.542,22.698C685.95,642.72,685.944,644.413,685.628,645.982z&#10;&#9; M687.75,604.079c-5.224-1.994-10.224-3.902-15.756-6.013c8.816-13.051,17.548-22.936,34.945-16.387&#10;&#9;C703.392,591.947,695.292,597.227,687.75,604.079z M705.144,618.793c-1.652-1.027-3.305-2.054-4.957-3.082&#10;&#9;c1.57-2.389,3.14-4.778,4.702-7.156c2.24,1.412,4.446,2.632,4.375,2.782C708.058,613.902,706.57,616.333,705.144,618.793z&#10;&#9; M593.55,625.513c-0.927,36.872-1.677,73.75-2.509,111.788c9.442-26.332,6.437-53.353,9.72-79.457&#10;&#9;c1.859-14.779,4.033-30.19,0.553-45.358C592.016,613.59,593.682,620.261,593.55,625.513z M820.399,802.958&#10;&#9;c-2.607,3.108-4.988,6.403-2.197,10.57c1.69,2.524,6.728,1.03,9.811-3.126c8.056-10.863,15.974-21.828,23.947-32.752&#10;&#9;C838.786,783.235,829.105,792.577,820.399,802.958z M941.665,405.229c-5.126-3.539-10.448-8.438-20.819-2.329&#10;&#9;c11.597,10.587,23.946,15.806,37.96,25.599C955.893,415.093,948.655,410.053,941.665,405.229z M947.048,699.276&#10;&#9;c8.199-6.291,14.273-11.328,20.751-15.776c3.585-2.461,7.745-4.085,11.693-6.017c-1.378-3.35-2.74-6.712-4.117-10.114&#10;&#9;C957.336,676.281,952.434,681.507,947.048,699.276z M853.764,807.984c13.733-14.367,19.83-25.065,27.17-48.214&#10;&#9;c-10.64,15.144-19.055,26.809-27.007,38.781C852.752,800.319,853.764,803.54,853.764,807.984z M271.679,427.892&#10;&#9;c-5.264,13.413,1.112,23.119,6.697,32.848C280.883,449.222,284.845,437.275,271.679,427.892z" style="fill: rgb(0, 0, 0);"/>
</svg>